<?xml version="1.0" encoding="utf-8"?>
<!-- Generator: Adobe Illustrator 16.0.0, SVG Export Plug-In . SVG Version: 6.00 Build 0)  -->
<!DOCTYPE svg PUBLIC "-//W3C//DTD SVG 1.1//EN" "http://www.w3.org/Graphics/SVG/1.1/DTD/svg11.dtd">
<svg version="1.1" id="hospiten_logo" xmlns="http://www.w3.org/2000/svg" xmlns:xlink="http://www.w3.org/1999/xlink" x="0px"
	 y="0px" width="596.527px" height="220.317px" viewBox="0 0 596.527 220.317" enable-background="new 0 0 596.527 220.317"
	 xml:space="preserve">
<g id="tipografia">
	<path fill="#00B288" d="M68.914,91.129c-5.49,0-10.577,1.637-15.284,4.902V74.77H42.264v61.554h11.366v-30.275
		c4.098-3.813,8.132-5.711,12.077-5.711c4.975,0,7.44,2.497,7.44,7.499v28.487h11.356v-28.365
		C84.502,96.715,79.327,91.129,68.914,91.129z"/>
	<path fill="#00B288" d="M166.853,108.761h-7.266c-3.595,0-5.38-1.417-5.38-4.299c0-3.149,3.107-4.717,9.237-4.717
		c5.855,0,11.296,0.989,16.292,3.009v-9.477c-4.996-1.733-10.353-2.574-16.001-2.574c-13.368,0-20.045,4.744-20.045,14.206
		c0,9.184,4.581,13.779,13.766,13.779h8.115c3.298,0,4.939,1.395,4.939,4.288c0,3.173-2.454,4.738-7.332,4.738
		c-6.571,0-12.332-1.018-17.344-3.021v9.479c5.013,1.708,10.631,2.579,16.911,2.579c12.771,0,19.145-4.742,19.145-14.207
		C181.89,113.36,176.862,108.761,166.853,108.761z"/>
	<path fill="#00B288" d="M114.635,90.704c-15.144,0-22.725,7.656-22.725,23.025c0.041,15.322,7.633,22.981,22.725,22.981
		c15.161,0,22.735-7.659,22.735-22.981C137.37,98.36,129.796,90.704,114.635,90.704z M114.635,127.715
		c-7.578,0-11.374-4.72-11.374-14.179c0-9.194,3.796-13.791,11.374-13.791c7.596,0,11.387,4.597,11.387,13.791
		C126.022,122.995,122.231,127.715,114.635,127.715z"/>
	<path fill="#00B288" d="M312.791,91.211c-14.947,0-22.425,7.359-22.425,22.079c0,15.408,8.14,23.114,24.498,23.114
		c6.261,0,11.355-0.439,15.338-1.276v-9.041c-4.535,0.844-9.077,1.27-13.621,1.27c-9.893,0-14.868-3.032-14.868-9.124h29.494
		C333.861,100.203,327.72,91.211,312.791,91.211z M320.506,109.89h-18.793c0.542-6.475,3.784-9.729,9.775-9.729
		C317.896,100.161,320.905,103.415,320.506,109.89z"/>
	<path fill="#00B288" d="M273.106,83.901h-8.411v40.328c0,8.115,3.771,12.179,11.332,12.179h9.272v-9.051h-3.773
		c-3.631,0-5.459-2.126-5.459-6.319v-20.779h9.233v-9.047h-10.483L273.106,83.901z"/>
	<path fill="#00B288" d="M367.441,91.211c-5.513,0-11.005,1.922-16.472,5.769l-1.435-5.769h-8.783v45.193h11.37v-30.275
		c4.081-3.813,8.13-5.708,12.085-5.708c4.941,0,7.417,2.494,7.417,7.498v28.485h11.392v-28.362
		C383.016,96.8,377.815,91.211,367.441,91.211z"/>
	<rect x="241.902" y="74.852" fill="#00B288" width="11.394" height="9.049"/>
	<rect x="241.902" y="91.211" fill="#00B288" width="11.394" height="45.196"/>
	<path fill="#00B288" d="M210.029,91.129c-7.231,0-13.858,0.618-19.824,1.866v59.684h11.367v-18.506
		c3.372,1.407,6.857,2.15,10.446,2.15c14.548,0,21.795-7.894,21.795-23.728C233.813,98.281,225.876,91.129,210.029,91.129z
		 M212.004,126.851c-3.845,0-7.316-0.776-10.432-2.326v-23.586c2.14-0.417,5.114-0.601,8.903-0.601
		c8.066,0,12.088,4.056,12.088,12.188C222.563,122.068,219.038,126.851,212.004,126.851z"/>
</g>
<g id="icono">
	<path fill="#00B288" d="M465.159,152.795c-15.743-8.676-25.522-25.251-25.522-43.256c0-27.192,22.044-49.314,49.139-49.314
		c11.428,0,22.146,3.819,30.992,11.042c3.208,2.62,7.925,2.135,10.536-1.088c2.61-3.218,2.125-7.952-1.083-10.572
		c-11.384-9.295-25.749-14.415-40.445-14.415c-35.355,0-64.117,28.864-64.117,64.346c0,23.493,12.755,45.116,33.293,56.431
		c1.145,0.633,2.38,0.931,3.599,0.931c2.643,0,5.206-1.409,6.57-3.9C470.109,159.359,468.785,154.792,465.159,152.795z"/>
	<path fill="#77BC1F" d="M548.939,85.066c-1.657-3.804-6.074-5.546-9.858-3.883c-3.793,1.66-5.527,6.09-3.87,9.894
		c2.703,6.223,4.075,12.849,4.075,19.702c0,27.191-22.046,49.312-49.143,49.312l-0.931-0.008c-4.157-0.078-7.54,3.245-7.604,7.396
		c-0.066,4.152,3.234,7.566,7.372,7.632l1.163,0.013c35.359,0,64.12-28.866,64.12-64.344
		C554.264,101.845,552.471,93.195,548.939,85.066z"/>
</g>
</svg>
