<?xml version="1.0" encoding="utf-8"?>
<!-- Generator: Adobe Illustrator 24.2.3, SVG Export Plug-In . SVG Version: 6.00 Build 0)  -->
<svg version="1.1" id="Capa_1" xmlns="http://www.w3.org/2000/svg" xmlns:xlink="http://www.w3.org/1999/xlink" x="0px" y="0px"
	 viewBox="0 0 250 125" style="enable-background:new 0 0 250 125;" xml:space="preserve">
<style type="text/css">
	.st0{fill:#12284C;}
	.st1{fill:#CDDE00;}
</style>
<g>
	<g>
		<g>
			<path class="st0" d="M121.4,66.7V54.6h-14.3v12.1h-3.2V39.6h3.2v12.1h14.3V39.6h3.2v27.1H121.4z"/>
			<path class="st0" d="M144.3,46.4c1.3,0.9,2.3,2.1,3,3.6s1,3.2,1,5.1V57c0,1.9-0.3,3.6-1,5.1s-1.7,2.7-3,3.6s-3,1.3-5,1.3
				s-3.6-0.4-5-1.3c-1.3-0.9-2.4-2.1-3-3.6c-0.7-1.5-1-3.2-1-5.1v-1.9c0-1.9,0.3-3.6,1-5.1s1.7-2.7,3-3.6s3-1.3,4.9-1.3
				C141.3,45.1,143,45.6,144.3,46.4z M136.2,48.8c-0.9,0.6-1.5,1.4-2,2.5s-0.7,2.4-0.7,3.9v1.7c0,1.5,0.2,2.8,0.7,3.9
				c0.5,1.1,1.1,1.9,2,2.5s1.9,0.9,3.2,0.9s2.3-0.3,3.2-0.9c0.9-0.6,1.5-1.4,2-2.5s0.7-2.4,0.7-3.9v-1.7c0-1.5-0.2-2.8-0.7-3.9
				c-0.5-1.1-1.1-1.9-2-2.5s-1.9-0.9-3.2-0.9C138.1,47.9,137,48.2,136.2,48.8z"/>
			<path class="st0" d="M154.1,47.9c0.7-0.9,1.7-1.6,2.9-2.1c1.2-0.4,2.4-0.7,3.8-0.7c1.7,0,3,0.3,4.1,0.9c1.1,0.6,1.9,1.3,2.5,2.3
				s0.8,2,0.8,3.2h-3c0-0.6-0.2-1.1-0.5-1.7c-0.3-0.6-0.8-1-1.4-1.4c-0.7-0.4-1.6-0.6-2.7-0.6c-1.3,0-2.4,0.3-3.2,0.8
				c-0.9,0.6-1.3,1.4-1.3,2.5c0,0.8,0.3,1.4,0.8,1.9c0.5,0.4,1.2,0.8,2,1s1.6,0.4,2.4,0.6c1.3,0.2,2.6,0.5,3.7,0.9s2,1,2.7,1.7
				c0.7,0.8,1,1.9,1,3.3c0,1.4-0.4,2.6-1.1,3.6c-0.7,1-1.7,1.7-2.9,2.2s-2.7,0.8-4.3,0.8c-1.5,0-2.9-0.2-4-0.7
				c-1.2-0.5-2.1-1.2-2.8-2.1c-0.7-0.9-1-2-1-3.2h3.1c0.1,0.7,0.4,1.2,0.8,1.7c0.4,0.5,1,0.9,1.7,1.2c0.7,0.3,1.5,0.4,2.5,0.4
				c1.1,0,2.1-0.2,2.8-0.5s1.3-0.7,1.6-1.3c0.3-0.5,0.5-1.1,0.5-1.7c0-0.8-0.2-1.5-0.7-1.9s-1.1-0.8-1.9-1c-0.8-0.2-1.7-0.4-2.7-0.6
				c-1.3-0.3-2.5-0.6-3.6-1s-2-1-2.6-1.8c-0.7-0.8-1-1.8-1-3C153,50,153.3,48.8,154.1,47.9z"/>
			<path class="st0" d="M180.6,66.7c-0.8-0.3-1.4-0.6-2-1.1s-1.1-1-1.5-1.6H177v9.8h-3.2V45.9h3v2.5h0.1c0.3-0.5,0.7-1,1.1-1.4
				c0.4-0.4,0.9-0.8,1.4-1.1s1.1-0.5,1.7-0.7c0.6-0.2,1.3-0.2,2-0.2c1.6,0,3,0.4,4.3,1.2s2.3,1.9,3,3.4s1.1,3.3,1.1,5.4v2
				c0,2.1-0.4,3.8-1.1,5.3c-0.7,1.5-1.7,2.6-3,3.4s-2.7,1.2-4.4,1.2C182.2,67,181.4,66.9,180.6,66.7z M185.8,63.4
				c0.8-0.6,1.5-1.4,1.9-2.5c0.5-1.1,0.7-2.5,0.7-4v-1.6c0-1.5-0.2-2.8-0.7-3.9c-0.4-1.1-1.1-1.9-1.9-2.5c-0.8-0.6-1.8-0.9-3-0.9
				s-2.3,0.3-3.1,0.9c-0.9,0.6-1.6,1.5-2,2.6c-0.5,1.1-0.7,2.4-0.7,3.8v1.6c0,1.5,0.2,2.8,0.7,3.9c0.5,1.1,1.2,2,2.1,2.6
				c0.9,0.6,2,0.9,3.2,0.9C184.1,64.2,185,63.9,185.8,63.4z"/>
			<path class="st0" d="M197.4,40.2c0.4-0.4,0.9-0.6,1.5-0.6s1.1,0.2,1.5,0.6c0.4,0.4,0.6,0.9,0.6,1.5s-0.2,1.1-0.6,1.5
				c-0.4,0.4-0.9,0.6-1.5,0.6s-1.1-0.2-1.5-0.6c-0.4-0.4-0.6-0.9-0.6-1.5C196.8,41.1,197,40.6,197.4,40.2z M197.3,45.9h3.2v20.9
				h-3.2V45.9z"/>
			<path class="st0" d="M208.3,39.6h3.2v6.3h4.2v2.7h-4.2v12.3c0,1.3,0.2,2.2,0.7,2.6s1.4,0.6,2.8,0.6c0.2,0,0.3,0,0.4,0
				c0.1,0,0.3,0,0.4,0v2.6c-0.1,0-0.4,0.1-0.7,0.1s-0.6,0.1-1,0.1c-1.7,0-2.9-0.2-3.8-0.7c-0.8-0.4-1.4-1.1-1.7-2
				c-0.3-0.9-0.4-2.1-0.4-3.4V48.7h-2.8V46h2.8v-6.4H208.3z"/>
			<path class="st0" d="M231.3,65.6c-0.6,0.5-1.2,0.8-2,1.1c-0.8,0.3-1.7,0.4-2.8,0.4c-2.1,0-3.7-0.6-5-1.8
				c-1.3-1.2-1.9-2.7-1.9-4.7c0-1.8,0.6-3.3,1.9-4.4c1.3-1.1,3.1-1.6,5.5-1.7h5.7v-2.2c0-1.4-0.4-2.6-1.2-3.3
				c-0.8-0.8-1.9-1.2-3.4-1.2c-1.4,0-2.5,0.3-3.3,1s-1.2,1.5-1.3,2.6h-3c0.1-0.9,0.3-1.8,0.6-2.6c0.4-0.8,0.8-1.4,1.5-2
				c0.6-0.6,1.4-1,2.4-1.3c0.9-0.3,2-0.5,3.3-0.5c1.5,0,2.8,0.3,4,0.8s2.1,1.3,2.7,2.3c0.7,1,1,2.3,1,3.7v14.7h-3.1v-2.7h-0.1
				C232.3,64.6,231.8,65.1,231.3,65.6z M230,63.7c0.8-0.4,1.4-0.9,1.9-1.7c0.5-0.7,0.7-1.5,0.7-2.4v-2.5h-5.5c-1.5,0-2.6,0.3-3.3,1
				c-0.7,0.6-1,1.5-1,2.4c0,1.3,0.5,2.3,1.4,2.9c0.9,0.6,1.9,0.9,3.1,0.9C228.3,64.3,229.2,64.1,230,63.7z"/>
			<path class="st0" d="M242.1,39.6h3.2v27.1h-3.2V39.6z"/>
			<path class="st0" d="M104.1,95.2c0,0.7,0.2,1.4,0.6,1.9c0.3,0.6,0.8,1,1.5,1.3c0.6,0.3,1.4,0.5,2.4,0.5c1.6,0,2.7-0.5,3.5-1.4
				c0.8-1,1.2-2.4,1.2-4.3V73.6h3.2v19.5c0,2.8-0.7,4.9-2,6.4c-1.4,1.5-3.3,2.3-5.8,2.3c-1.1,0-2.1-0.2-3.1-0.5
				c-0.9-0.3-1.7-0.8-2.4-1.4c-0.7-0.6-1.2-1.3-1.5-2.1c-0.4-0.8-0.5-1.7-0.5-2.7L104.1,95.2L104.1,95.2z"/>
			<path class="st0" d="M136,81c1.3,0.9,2.3,2.1,3,3.6s1,3.2,1,5.1v1.9c0,1.9-0.3,3.6-1,5.1s-1.7,2.7-3,3.6s-3,1.3-5,1.3
				s-3.6-0.4-5-1.3c-1.3-0.9-2.4-2.1-3-3.6s-1-3.2-1-5.1v-1.9c0-1.9,0.3-3.6,1-5.1s1.7-2.7,3-3.6s3-1.3,4.9-1.3
				C133,79.7,134.7,80.1,136,81z M127.9,83.4c-0.9,0.6-1.5,1.4-2,2.5s-0.7,2.4-0.7,3.9v1.7c0,1.5,0.2,2.8,0.7,3.9s1.1,1.9,2,2.5
				s1.9,0.9,3.2,0.9s2.3-0.3,3.2-0.9s1.5-1.4,2-2.5s0.7-2.4,0.7-3.9v-1.7c0-1.5-0.2-2.8-0.7-3.9s-1.1-1.9-2-2.5s-1.9-0.9-3.2-0.9
				S128.8,82.8,127.9,83.4z"/>
			<path class="st0" d="M159.5,85.4c-0.6,1.8-1.3,3.6-1.9,5.4c-0.6,1.8-1.3,3.6-1.9,5.4c-0.6,1.8-1.3,3.6-1.9,5.4l-0.5,1.5
				c-0.8,2.2-1.8,3.7-2.9,4.5c-1.1,0.8-2.5,1.2-4.2,1.2c-0.3,0-0.6,0-0.9,0c-0.3,0-0.6-0.1-0.9-0.1V106c0.2,0,0.4,0,0.7,0.1
				c0.3,0,0.6,0,0.8,0c1.2,0,2.1-0.2,2.8-0.7c0.6-0.5,1.1-1.3,1.4-2.4l0.3-1.2L142.5,80h3.5l6,17.5h0.1l6-17.5h3.4
				C160.8,81.8,160.1,83.6,159.5,85.4z"/>
			<path class="st0" d="M175.2,100.1c-0.6,0.5-1.2,0.8-2,1.1c-0.8,0.3-1.7,0.4-2.8,0.4c-2.1,0-3.7-0.6-5-1.8
				c-1.3-1.2-1.9-2.7-1.9-4.7c0-1.8,0.6-3.3,1.9-4.4c1.3-1.1,3.1-1.6,5.5-1.7h5.7v-2.2c0-1.4-0.4-2.6-1.2-3.3
				c-0.8-0.8-1.9-1.2-3.4-1.2c-1.4,0-2.5,0.3-3.3,1s-1.2,1.5-1.3,2.6h-3c0.1-0.9,0.3-1.8,0.6-2.6c0.4-0.8,0.9-1.4,1.5-2
				s1.4-1,2.4-1.3c0.9-0.3,2-0.5,3.3-0.5c1.5,0,2.8,0.3,4,0.8s2.1,1.3,2.7,2.3c0.7,1,1,2.3,1,3.7V101h-3.1v-2.7h-0.1
				C176.2,99.2,175.8,99.7,175.2,100.1z M173.9,98.3c0.8-0.4,1.4-0.9,1.9-1.7c0.5-0.7,0.7-1.5,0.7-2.4v-2.5H171
				c-1.5,0-2.6,0.3-3.3,1c-0.7,0.6-1,1.5-1,2.4c0,1.3,0.5,2.3,1.4,2.9s1.9,0.9,3.1,0.9C172.2,98.9,173.1,98.7,173.9,98.3z"/>
		</g>
	</g>
	<g>
		<circle class="st1" cx="74.1" cy="17.9" r="9.9"/>
		<path class="st1" d="M24.5,99.2h19.9V79.4h19.9v39.7c10.4,0,19.9-9.5,19.9-21.2V39.6h-20v19.9H44.3V39.6H24.5v19.9H4.6v19.9h19.9
			V99.2z"/>
	</g>
</g>
</svg>
