<?xml version="1.0" encoding="utf-8"?>
<!-- Generator: Adobe Illustrator 22.1.0, SVG Export Plug-In . SVG Version: 6.00 Build 0)  -->
<svg version="1.1" id="Layer_1" xmlns="http://www.w3.org/2000/svg" xmlns:xlink="http://www.w3.org/1999/xlink" x="0px" y="0px"
	 viewBox="0 0 469.2 122.3" style="enable-background:new 0 0 469.2 122.3;" xml:space="preserve">
<style type="text/css">
	.st0{fill:#81848A;}
	.st1{fill:#70B7C2;}
</style>
<polygon class="st0" points="466.1,52.7 466.1,46.2 416,46.2 416,20.2 465.6,20.2 465.6,13.7 409.1,13.7 409.1,85.9 466.1,85.9 
	466.1,79.4 416,79.4 416,52.7 "/>
<g>
	<path class="st0" d="M203.5,122.1v-6.6h-10.7v6.6h-2v-14h2v5.7h10.7v-5.7h2v14H203.5z"/>
	<path class="st0" d="M210.5,122.1v-14h12.9v1.7h-10.9v4.2h10.6v1.7h-10.6v4.7H224v1.7H210.5z"/>
	<path class="st0" d="M239.6,122.1l-1.7-3.4h-8.6l-1.7,3.4h-2.2l7.3-14h2.1l7.2,14H239.6z M233.6,110.1l-3.5,6.9h6.9L233.6,110.1z"
		/>
	<path class="st0" d="M244.3,122.1v-14h2v12.3h9.3v1.7H244.3z"/>
	<path class="st0" d="M260.9,109.8v12.3h-2v-12.3h-5.7v-1.7h13.4v1.7H260.9z"/>
	<path class="st0" d="M282.2,122.1v-6.6h-10.7v6.6h-2v-14h2v5.7h10.7v-5.7h2v14H282.2z"/>
	<path class="st0" d="M287.5,117v-1.6h6.2v1.6H287.5z"/>
	<path class="st0" d="M312.8,118.3c-1.6,3.4-5.2,4.2-8.1,4.2c-4.8,0-8.5-2.5-8.5-7.4c0-4.4,3.1-7.3,8.4-7.3c3.3,0,6.3,1.1,7.9,4.1
		l-2.1,0.5c-1.1-2-3.4-2.8-5.7-2.8c-3.1,0-6.4,1.4-6.4,5.5c0,3.9,2.9,5.7,6.7,5.7c1.9,0,4.5-0.5,5.7-2.9L312.8,118.3z"/>
	<path class="st0" d="M328,122.1l-1.7-3.4h-8.6l-1.7,3.4h-2.2l7.3-14h2.1l7.2,14H328z M322,110.1l-3.5,6.9h6.9L322,110.1z"/>
	<path class="st0" d="M346.2,122.1l-4.7-5.6h-6.8v5.6h-2v-14h9.5c1.2,0,1.6,0.1,2.2,0.2c1.9,0.5,3,2,3,3.9c0,0.8-0.2,2.7-2.3,3.6
		c-0.4,0.1-0.7,0.3-1.5,0.4l5.2,5.9H346.2z M341.6,114.9c1.1,0,2.5,0,3.2-1c0.2-0.2,0.5-0.7,0.5-1.5c0-0.3,0-0.8-0.4-1.4
		c-0.6-1-1.5-1.1-2.6-1.1h-7.7v5.1H341.6z"/>
	<path class="st0" d="M352.1,122.1v-14H365v1.7h-10.9v4.2h10.6v1.7h-10.6v4.7h11.4v1.7H352.1z"/>
	<path class="st0" d="M389.4,122.1v-1.9c-1,1.1-3,2.2-6.1,2.2c-5,0-8-3.4-8-7.3c0-4.1,3.2-7.3,8.4-7.3c2.8,0,6.1,1.1,7.4,3.7
		l-1.9,0.6c-0.8-1.2-2.5-2.6-5.3-2.6c-3.4,0-6.4,1.9-6.4,5.5c0,3.8,3,5.8,6.3,5.8c1.9,0,4.1-0.8,5.2-2.6c0.4-0.6,0.5-1.1,0.6-1.8
		h-6.2v-1.7h7.8v7.4H389.4z"/>
	<path class="st0" d="M409.3,122.1l-4.7-5.6h-6.8v5.6h-2v-14h9.5c1.2,0,1.6,0.1,2.2,0.2c1.9,0.5,3,2,3,3.9c0,0.8-0.2,2.7-2.3,3.6
		c-0.4,0.1-0.7,0.3-1.5,0.4l5.2,5.9H409.3z M404.7,114.9c1.1,0,2.5,0,3.2-1c0.2-0.2,0.5-0.7,0.5-1.5c0-0.3,0-0.8-0.4-1.4
		c-0.6-1-1.5-1.1-2.6-1.1h-7.7v5.1H404.7z"/>
	<path class="st0" d="M422.6,122.5c-5.2,0-8.6-2.7-8.6-7.2c0-5,4-7.5,8.4-7.5c4.1,0,8.6,2.3,8.6,7.5
		C431.1,119.2,428.1,122.5,422.6,122.5z M422.5,109.5c-3.4,0-6.5,1.7-6.5,5.7c0,3.5,2.5,5.6,6.6,5.6c4.8,0,6.4-2.9,6.4-5.6
		C429.1,112.6,427.4,109.5,422.5,109.5z"/>
	<path class="st0" d="M437,108.1v8.5c0,2.3,0.9,2.8,1.4,3.1c0.7,0.4,1.8,0.9,3.8,0.9c0.4,0,3.9,0,4.8-2c0.3-0.7,0.3-1.3,0.3-2v-8.6
		h2v8.4c0,0.9,0,1.7-0.4,2.6c-1.1,2.7-4.2,3.3-6.8,3.3c-1.1,0-5-0.1-6.6-2.9c-0.6-1-0.6-2.1-0.6-3.2v-8.2H437z"/>
	<path class="st0" d="M454.3,108.1h8.8c1.2,0,3.5,0.1,4.7,1.9c0.5,0.7,0.7,1.5,0.7,2.4c0,0.6-0.1,2.1-1.5,3.1c-1.2,0.9-2.5,1-4,1
		h-6.7v5.6h-2V108.1z M462.8,114.8c1.1,0,2.3,0,3-1c0.2-0.3,0.5-0.8,0.5-1.6c0-0.3,0-0.9-0.5-1.5c-0.8-1-2.1-1-3.3-1h-6.2v5.1H462.8
		z"/>
</g>
<g>
	<path class="st0" d="M463.9,70.3c-1,1-2.3,1.6-3.8,1.6c-1.5,0-2.7-0.5-3.8-1.6c-1-1-1.5-2.3-1.5-3.8c0-1.5,0.5-2.7,1.6-3.8
		c1-1,2.3-1.6,3.8-1.6c1.5,0,2.7,0.5,3.8,1.6c1,1,1.6,2.3,1.6,3.8C465.5,67.9,465,69.2,463.9,70.3z M456.9,63.2
		c-0.9,0.9-1.3,2-1.3,3.3c0,1.3,0.4,2.4,1.3,3.3c0.9,0.9,2,1.4,3.3,1.4c1.3,0,2.4-0.5,3.3-1.4c0.9-0.9,1.3-2,1.3-3.3
		c0-1.3-0.4-2.4-1.3-3.3c-0.9-0.9-2-1.4-3.3-1.4C458.9,61.9,457.8,62.3,456.9,63.2z M460.1,63.5c0.7,0,1.3,0.1,1.6,0.2
		c0.6,0.3,0.9,0.7,0.9,1.5c0,0.5-0.2,0.9-0.6,1.2c-0.2,0.1-0.5,0.2-0.8,0.3c0.5,0.1,0.8,0.3,1,0.6c0.2,0.3,0.3,0.6,0.3,0.9v0.4
		c0,0.1,0,0.3,0,0.4c0,0.2,0,0.3,0.1,0.3l0,0.1h-1c0,0,0,0,0-0.1s0,0,0-0.1l0-0.2v-0.5c0-0.7-0.2-1.1-0.6-1.3
		c-0.2-0.1-0.6-0.2-1.1-0.2H459v2.3h-1v-5.9H460.1z M461.2,64.4c-0.3-0.1-0.7-0.2-1.3-0.2H459v2.1h0.9c0.4,0,0.8,0,1-0.1
		c0.4-0.2,0.6-0.5,0.6-0.9C461.6,64.9,461.4,64.6,461.2,64.4z"/>
</g>
<path class="st0" d="M391.4,50.7c6.7,3.2,10,8.7,10,16.5V86h-7V67.5c0-8.8-6.4-13.2-19.1-13.2h-27.6V86h-7V13.8h35.6
	c17.5,0,26.2,6.5,26.2,19.4C402.5,41.5,398.8,47.3,391.4,50.7z M376.5,20.3h-28.7v27.5h27c6,0,10.8-1.1,14.4-3.2
	c4.2-2.5,6.3-6.2,6.3-11.2C395.5,24.6,389.2,20.3,376.5,20.3z"/>
<rect x="409.2" y="0.2" class="st1" width="56.4" height="6.5"/>
<g>
	<path class="st1" d="M55.2,52.2c-4.4-2.6-13.1-5-26.2-7.3c-6.9-1.1-11.7-2.4-14.5-3.9c-3.9-2-5.9-5-5.9-9c0-8.2,7.4-12.3,22.2-12.3
		c7.5,0,13,1,16.7,3c4.4,2.4,6.8,7.3,7.3,14.8h6.9C61.6,21.1,51.3,13,30.9,13C11.4,13,1.7,19.3,1.7,31.8c0,6.7,3.4,11.7,10.1,15
		c3.3,1.6,9.5,3.4,18.6,5.3c7.9,1.6,13,2.8,15.1,3.4c3.8,1.1,6.5,2.3,8.1,3.8c1.8,1.7,2.8,4.2,2.8,7.5c0,4.8-2.6,8.3-7.8,10.6
		c-4.1,1.8-9.3,2.7-15.5,2.7c-17.8,0-26.7-6.1-26.7-18.3V59h-7v3.3c0,8.8,3.6,15.3,10.9,19.4c5.7,3.3,13.3,5,22.8,5
		c7.7,0,14.2-1.3,19.7-3.9c7.2-3.5,10.8-8.7,10.8-15.5C63.4,60.4,60.7,55.4,55.2,52.2z"/>
	<path class="st1" d="M188,74.9c-5-6.1-13.5-16.1-25.7-30.4c-11-12.8-19.6-23.1-25.7-30.8h-6.8v56.8l-26.3-56.8h-6L62.8,85.9h7.9
		l12.8-26.5h33.4l12.3,26.5h0.6h7h0.1l-0.1-0.2v-61l51.1,61.2l7,0v-2.7L188,74.9z M86.6,52.9l13.9-28.9l13.4,28.9H86.6z"/>
</g>
<path class="st0" d="M327,85.9h7.8l-33.4-72.2h-6l-27.7,57.7V13.7h-7.5l-32.5,62.5l-32.4-62.5h-7.5v72.2h7V27.8l30.1,58.1h5.4
	l30.1-58.1v58.1h0.1h7h0.9l12.8-26.5h33.4L327,85.9z M284.5,52.9l13.9-28.9l13.4,28.9H284.5z"/>
</svg>
