<svg xmlns:dc="http://purl.org/dc/elements/1.1/" xmlns:cc="http://creativecommons.org/ns#" xmlns:rdf="http://www.w3.org/1999/02/22-rdf-syntax-ns#" xmlns:svg="http://www.w3.org/2000/svg" xmlns="http://www.w3.org/2000/svg" xmlns:sodipodi="http://sodipodi.sourceforge.net/DTD/sodipodi-0.dtd" xmlns:inkscape="http://www.inkscape.org/namespaces/inkscape" width="250" height="100" viewBox="0 0 66.145846 26.45835" version="1.1" id="svg5700" inkscape:version="0.92.4 (5da689c313, 2019-01-14)" sodipodi:docname="logo-diagnostik.svg">
  <defs id="defs5694"/>
  <sodipodi:namedview id="base" pagecolor="#ffffff" bordercolor="#666666" borderopacity="1.0" inkscape:pageopacity="0.0" inkscape:pageshadow="2" inkscape:zoom="1.979899" inkscape:cx="200.64629" inkscape:cy="84.794062" inkscape:document-units="mm" inkscape:current-layer="layer1" showgrid="false" inkscape:window-width="1920" inkscape:window-height="1001" inkscape:window-x="-9" inkscape:window-y="-9" inkscape:window-maximized="1" units="px"/>
  <metadata id="metadata5697">
    <rdf:RDF>
      <cc:Work rdf:about="">
        <dc:format>image/svg+xml</dc:format>
        <dc:type rdf:resource="http://purl.org/dc/dcmitype/StillImage"/>
        <dc:title/>
      </cc:Work>
    </rdf:RDF>
  </metadata>
  <g inkscape:label="Capa 1" inkscape:groupmode="layer" id="layer1" transform="translate(0,-270.54075)">
    <g transform="matrix(1.3592743,0,0,1.3592743,-0.62885807,-95.627118)" id="g5096">
      <g transform="matrix(0.35277777,0,0,-0.35277777,38.765009,271.90374)" id="g1780">
        <path inkscape:connector-curvature="0" id="path1782" style="fill:#70c2b2;fill-opacity:1;fill-rule:nonzero;stroke:none" d="m 0,0 c -4.35,-0.569 -8.553,-2.516 -11.889,-5.851 l 1.859,-1.858 c 2.84,2.84 6.402,4.529 10.1,5.07 C 0.046,-2.643 0.023,-2.645 0,-2.648 Z"/>
      </g>
      <g transform="matrix(0.35277777,0,0,-0.35277777,38.765009,286.24099)" id="g1784">
        <path inkscape:connector-curvature="0" id="path1786" style="fill:#70c2b2;fill-opacity:1;fill-rule:nonzero;stroke:none" d="m 0,0 c -4.35,0.569 -8.553,2.516 -11.889,5.851 l 1.859,1.858 C -7.19,4.869 -3.628,3.18 0.07,2.639 0.046,2.643 0.023,2.645 0,2.648 Z"/>
      </g>
      <g transform="matrix(0.35277777,0,0,-0.35277777,46.977249,278.68368)" id="g1788">
        <path inkscape:connector-curvature="0" id="path1790" style="fill:#0075c9;fill-opacity:1;fill-rule:nonzero;stroke:none" d="M 0,0 H -0.001 C -0.144,2.423 -0.71,4.825 -1.7,7.085 -1.71,7.108 -1.72,7.13 -1.73,7.153 -1.84,7.401 -1.955,7.647 -2.075,7.892 -2.106,7.954 -2.138,8.016 -2.169,8.078 -2.273,8.285 -2.38,8.49 -2.492,8.694 c -0.06,0.109 -0.122,0.217 -0.184,0.325 -0.09,0.158 -0.181,0.315 -0.276,0.471 -0.101,0.167 -0.208,0.332 -0.314,0.497 -0.063,0.097 -0.125,0.195 -0.189,0.291 -0.166,0.245 -0.336,0.488 -0.512,0.726 -0.012,0.017 -0.024,0.034 -0.036,0.051 -0.598,0.805 -1.259,1.578 -1.989,2.308 -0.294,0.294 -0.597,0.575 -0.906,0.849 -0.008,0.007 -0.016,0.013 -0.023,0.02 -0.289,0.256 -0.584,0.502 -0.885,0.74 l -0.087,0.068 c -0.3,0.234 -0.606,0.461 -0.917,0.678 l -0.013,0.009 c -3.426,2.387 -7.489,3.676 -11.752,3.676 l -0.501,-0.01 v 2.462 h -2.203 V 19.219 16.57 c 0.024,0.004 0.047,0.006 0.07,0.01 0.041,0.005 0.083,0.011 0.124,0.016 0.237,0.033 0.468,0.061 0.69,0.083 0.041,0.004 0.081,0.009 0.121,0.013 0.299,0.027 0.573,0.045 0.813,0.058 0.006,0 0.012,0 0.018,0.001 0.524,0.027 0.868,0.024 0.868,0.024 4.807,0 9.326,-1.871 12.725,-5.27 0.046,-0.046 0.084,-0.096 0.129,-0.142 0.308,-0.315 0.602,-0.639 0.884,-0.971 0.07,-0.084 0.144,-0.166 0.212,-0.251 0.295,-0.36 0.57,-0.732 0.833,-1.11 0.05,-0.072 0.103,-0.141 0.151,-0.214 0.273,-0.405 0.526,-0.822 0.764,-1.246 0.03,-0.054 0.063,-0.108 0.092,-0.162 0.243,-0.443 0.465,-0.897 0.668,-1.358 0.015,-0.033 0.03,-0.067 0.045,-0.1 0.207,-0.477 0.392,-0.962 0.556,-1.454 0.006,-0.018 0.012,-0.035 0.017,-0.052 0.166,-0.501 0.31,-1.009 0.43,-1.525 0.002,-0.007 0.004,-0.015 0.006,-0.023 0.247,-1.062 0.402,-2.151 0.453,-3.26 10e-4,-0.025 0.003,-0.049 0.004,-0.073 0.01,-0.226 0.019,-0.49 0.017,-0.666 0.002,-0.176 -0.007,-0.44 -0.017,-0.666 C -2.607,-1.792 -2.609,-1.816 -2.61,-1.84 -2.661,-2.949 -2.816,-4.039 -3.063,-5.101 -3.065,-5.108 -3.067,-5.116 -3.069,-5.125 -3.189,-5.64 -3.333,-6.148 -3.499,-6.649 -3.504,-6.666 -3.51,-6.683 -3.516,-6.7 -3.68,-7.193 -3.865,-7.678 -4.072,-8.154 c -0.015,-0.034 -0.03,-0.067 -0.045,-0.1 -0.203,-0.462 -0.425,-0.915 -0.668,-1.358 -0.029,-0.055 -0.062,-0.109 -0.092,-0.163 -0.238,-0.424 -0.491,-0.841 -0.764,-1.246 -0.048,-0.072 -0.101,-0.142 -0.151,-0.213 -0.263,-0.379 -0.538,-0.75 -0.833,-1.111 -0.068,-0.084 -0.142,-0.167 -0.212,-0.25 -0.282,-0.333 -0.576,-0.657 -0.884,-0.972 -0.045,-0.046 -0.083,-0.096 -0.129,-0.141 -3.399,-3.399 -7.918,-5.271 -12.725,-5.271 0,0 -0.344,-0.002 -0.868,0.024 -0.006,10e-4 -0.012,10e-4 -0.018,10e-4 -0.24,0.013 -0.514,0.031 -0.813,0.058 -0.04,0.004 -0.08,0.009 -0.121,0.013 -0.222,0.022 -0.453,0.05 -0.69,0.083 -0.041,0.006 -0.083,0.011 -0.124,0.017 -0.023,0.003 -0.046,0.006 -0.07,0.009 v -2.648 -2.637 h 2.203 v 2.463 l 0.501,-0.011 c 4.263,0 8.326,1.29 11.752,3.676 l 0.013,0.009 c 0.311,0.217 0.617,0.444 0.917,0.679 l 0.087,0.067 c 0.301,0.239 0.596,0.484 0.885,0.74 0.007,0.007 0.015,0.014 0.023,0.02 0.309,0.274 0.612,0.555 0.906,0.849 0.73,0.73 1.391,1.503 1.989,2.309 0.012,0.016 0.024,0.033 0.036,0.05 0.176,0.239 0.346,0.481 0.512,0.726 0.064,0.097 0.126,0.194 0.189,0.292 0.106,0.164 0.213,0.329 0.314,0.496 0.095,0.156 0.186,0.314 0.276,0.471 0.062,0.108 0.124,0.216 0.184,0.325 0.112,0.204 0.219,0.41 0.323,0.617 0.031,0.062 0.063,0.123 0.094,0.185 0.12,0.245 0.235,0.491 0.345,0.74 0.01,0.022 0.02,0.044 0.03,0.067 0.99,2.26 1.556,4.663 1.699,7.085 H 0 2.489 V -1.102 0 Z"/>
      </g>
      <g transform="matrix(0.35277777,0,0,-0.35277777,2.661621,277.75658)" id="g1792">
        <path inkscape:connector-curvature="0" id="path1794" style="fill:#0075c9;fill-opacity:1;fill-rule:nonzero;stroke:none" d="m 0,0 v -8.113 h 1.56 c 1.3,0 2.347,0.374 3.14,1.121 0.793,0.748 1.19,1.74 1.19,2.975 0,1.247 -0.394,2.229 -1.18,2.945 C 3.923,-0.356 2.873,0 1.56,0 Z m 6.65,0.625 c 1.3,-1.171 1.951,-2.718 1.951,-4.642 0,-1.899 -0.654,-3.452 -1.96,-4.662 C 5.334,-9.887 3.647,-10.493 1.58,-10.493 H -2.633 V 2.38 H 1.58 c 2.08,0 3.77,-0.585 5.07,-1.755"/>
      </g>
      <path inkscape:connector-curvature="0" id="path1796" style="fill:#0075c9;fill-opacity:1;fill-rule:nonzero;stroke:none;stroke-width:0.35277778" d="M 7.409519,281.45827 H 6.480652 v -4.54131 h 0.928867 z"/>
      <g transform="matrix(0.35277777,0,0,-0.35277777,10.196209,278.5753)" id="g1798">
        <path inkscape:connector-curvature="0" id="path1800" style="fill:#0075c9;fill-opacity:1;fill-rule:nonzero;stroke:none" d="M 0,0 -1.697,-4.329 H 1.697 Z M 2.633,-6.495 H -2.633 L -3.354,-8.172 H -6.183 L -0.429,4.935 H 0.449 L 6.183,-8.172 H 3.354 Z"/>
      </g>
      <g transform="matrix(0.35277777,0,0,-0.35277777,16.967009,277.81828)" id="g1802">
        <path inkscape:connector-curvature="0" id="path1804" style="fill:#0075c9;fill-opacity:1;fill-rule:nonzero;stroke:none" d="m 0,0 -1.873,-1.541 c -0.909,1.261 -2.106,1.892 -3.588,1.892 -1.235,0 -2.233,-0.396 -2.994,-1.19 -0.76,-0.793 -1.141,-1.807 -1.141,-3.042 0,-1.262 0.394,-2.296 1.18,-3.101 0.787,-0.807 1.824,-1.21 3.111,-1.21 1.495,0 2.626,0.534 3.393,1.599 v 1.054 h -3.549 v 2.282 h 6.182 v -3.804 c -0.585,-1.04 -1.42,-1.881 -2.506,-2.525 -1.085,-0.644 -2.298,-0.966 -3.637,-0.966 -1.937,0 -3.569,0.64 -4.895,1.921 -1.327,1.281 -1.99,2.865 -1.99,4.75 0,1.885 0.663,3.467 1.99,4.749 1.326,1.28 2.958,1.921 4.895,1.921 C -3.107,2.789 -1.3,1.859 0,0"/>
      </g>
      <g transform="matrix(0.35277777,0,0,-0.35277777,21.893869,276.91703)" id="g1806">
        <path inkscape:connector-curvature="0" id="path1808" style="fill:#0075c9;fill-opacity:1;fill-rule:nonzero;stroke:none" d="m 0,0 v -13.106 h -0.877 l -7.451,7.957 v -7.724 H -10.96 V 0.234 h 0.857 l 7.47,-7.899 V 0 Z"/>
      </g>
      <g transform="matrix(0.35277777,0,0,-0.35277777,24.041189,278.11419)" id="g1810">
        <path inkscape:connector-curvature="0" id="path1812" style="fill:#0075c9;fill-opacity:1;fill-rule:nonzero;stroke:none" d="m 0,0 c -0.78,-0.793 -1.17,-1.808 -1.17,-3.042 0,-1.248 0.386,-2.266 1.16,-3.053 0.774,-0.787 1.765,-1.179 2.974,-1.179 1.183,0 2.169,0.396 2.955,1.189 0.787,0.793 1.18,1.808 1.18,3.043 0,1.234 -0.393,2.249 -1.18,3.042 C 5.133,0.793 4.147,1.189 2.964,1.189 1.768,1.189 0.78,0.793 0,0 M 7.801,1.707 C 9.141,0.425 9.81,-1.157 9.81,-3.042 9.81,-4.927 9.141,-6.511 7.801,-7.792 6.462,-9.073 4.843,-9.713 2.945,-9.713 c -1.898,0 -3.51,0.64 -4.837,1.921 -1.326,1.281 -1.989,2.865 -1.989,4.75 0,1.885 0.663,3.467 1.989,4.749 1.327,1.28 2.939,1.92 4.837,1.92 1.898,0 3.517,-0.64 4.856,-1.92"/>
      </g>
      <g transform="matrix(0.35277777,0,0,-0.35277777,30.615979,277.06862)" id="g1814">
        <path inkscape:connector-curvature="0" id="path1816" style="fill:#0075c9;fill-opacity:1;fill-rule:nonzero;stroke:none" d="m 0,0 c 0.722,-0.441 1.284,-1.033 1.687,-1.774 l -1.794,-1.385 c -0.664,0.989 -1.482,1.482 -2.457,1.482 -0.456,0 -0.836,-0.107 -1.142,-0.322 -0.305,-0.213 -0.458,-0.522 -0.458,-0.926 0,-0.339 0.114,-0.607 0.342,-0.809 0.227,-0.202 0.614,-0.426 1.16,-0.673 L -1.2,-5.051 c 1.08,-0.481 1.88,-1.011 2.4,-1.589 0.52,-0.579 0.779,-1.304 0.779,-2.175 0,-1.17 -0.422,-2.106 -1.267,-2.809 -0.845,-0.701 -1.924,-1.053 -3.237,-1.053 -1.093,0 -2.072,0.258 -2.936,0.771 -0.865,0.513 -1.544,1.206 -2.038,2.077 l 1.813,1.365 c 0.898,-1.248 1.951,-1.872 3.161,-1.872 0.571,0 1.02,0.126 1.345,0.38 0.325,0.254 0.488,0.601 0.488,1.043 0,0.261 -0.075,0.492 -0.225,0.693 -0.149,0.202 -0.318,0.354 -0.507,0.458 -0.188,0.105 -0.491,0.254 -0.907,0.449 l -1.384,0.624 c -1.002,0.455 -1.772,0.975 -2.312,1.56 -0.539,0.585 -0.809,1.3 -0.809,2.146 0,1.092 0.403,1.973 1.21,2.643 C -4.82,0.329 -3.8,0.664 -2.564,0.664 -1.577,0.664 -0.722,0.442 0,0"/>
      </g>
      <g transform="matrix(0.35277777,0,0,-0.35277777,35.546259,277.75658)" id="g1818">
        <path inkscape:connector-curvature="0" id="path1820" style="fill:#0075c9;fill-opacity:1;fill-rule:nonzero;stroke:none" d="M 0,0 H -4.135 V -10.493 H -6.768 V 0 h -4.115 V 2.38 H 0 Z"/>
      </g>
      <path inkscape:connector-curvature="0" id="path1822" style="fill:#0075c9;fill-opacity:1;fill-rule:nonzero;stroke:none;stroke-width:0.35277778" d="m 37.087649,281.45827 h -0.92886 v -4.54131 h 0.92886 z"/>
      <g transform="matrix(0.35277777,0,0,-0.35277777,40.810339,279.05695)" id="g1824">
        <path inkscape:connector-curvature="0" id="path1826" style="fill:#70c2b2;fill-opacity:1;fill-rule:nonzero;stroke:none" d="M 0,0 4.934,6.066 H 1.794 L -3.121,0.079 V 6.066 H -5.754 V 1.065 h -2.457 v -2.203 h 2.457 v -5.669 h 2.633 v 6.71 l 5.519,-6.71 h 3.179 z"/>
      </g>
      <g transform="matrix(0.35277777,0,0,-0.35277777,3.307028,273.24441)" id="g1828">
        <path inkscape:connector-curvature="0" id="path1830" style="fill:#0075c9;fill-opacity:1;fill-rule:nonzero;stroke:none" d="m 0,0 -0.552,-0.451 c -0.356,0.498 -0.828,0.745 -1.417,0.745 -0.503,0 -0.913,-0.163 -1.229,-0.494 -0.317,-0.332 -0.474,-0.748 -0.474,-1.252 0,-0.513 0.162,-0.936 0.487,-1.271 0.326,-0.335 0.746,-0.504 1.259,-0.504 0.622,0 1.095,0.242 1.416,0.72 v 0.51 h -1.459 v 0.677 h 2.221 v -1.34 c -0.211,-0.379 -0.513,-0.679 -0.906,-0.907 -0.393,-0.229 -0.829,-0.342 -1.308,-0.342 -0.705,0 -1.297,0.235 -1.779,0.704 -0.482,0.47 -0.722,1.052 -0.722,1.747 0,0.688 0.24,1.271 0.722,1.743 0.482,0.472 1.074,0.707 1.779,0.707 C -1.124,0.992 -0.469,0.664 0,0"/>
      </g>
      <g transform="matrix(0.35277777,0,0,-0.35277777,6.766085,273.71018)" id="g1832">
        <path inkscape:connector-curvature="0" id="path1834" style="fill:#0075c9;fill-opacity:1;fill-rule:nonzero;stroke:none" d="m 0,0 h 0.956 c 0.265,0 0.469,0.072 0.618,0.216 0.149,0.14 0.224,0.328 0.224,0.56 0,0.235 -0.075,0.422 -0.224,0.566 C 1.425,1.486 1.221,1.558 0.956,1.558 H 0 Z M 2.222,-2.51 0.87,-0.676 H 0 V -2.51 H -0.762 V 2.234 H 0.97 C 1.451,2.234 1.838,2.1 2.136,1.831 2.432,1.564 2.58,1.214 2.58,0.782 2.58,0.469 2.5,0.197 2.341,-0.038 2.18,-0.272 1.956,-0.445 1.668,-0.554 L 3.092,-2.51 Z"/>
      </g>
      <g transform="matrix(0.35277777,0,0,-0.35277777,12.477029,273.91895)" id="g1836">
        <path inkscape:connector-curvature="0" id="path1838" style="fill:#0075c9;fill-opacity:1;fill-rule:nonzero;stroke:none" d="m 0,0 c 0,-0.616 -0.181,-1.104 -0.543,-1.461 -0.361,-0.357 -0.828,-0.536 -1.397,-0.536 -0.581,0 -1.052,0.179 -1.413,0.536 -0.361,0.357 -0.543,0.845 -0.543,1.461 v 2.826 h 0.762 V -0.05 c 0,-0.401 0.111,-0.71 0.335,-0.927 0.222,-0.215 0.508,-0.322 0.859,-0.322 0.344,0 0.628,0.107 0.848,0.322 0.22,0.217 0.33,0.526 0.33,0.927 V 2.826 H 0 Z"/>
      </g>
      <g transform="matrix(0.35277777,0,0,-0.35277777,16.081819,273.16052)" id="g1840">
        <path inkscape:connector-curvature="0" id="path1842" style="fill:#0075c9;fill-opacity:1;fill-rule:nonzero;stroke:none" d="m 0,0 v -1.558 h 0.957 c 0.269,0 0.475,0.069 0.622,0.209 0.146,0.144 0.219,0.332 0.219,0.567 0,0.235 -0.073,0.422 -0.219,0.566 C 1.432,-0.072 1.226,0 0.957,0 Z M 2.136,0.272 C 2.432,0.006 2.581,-0.344 2.581,-0.776 2.581,-1.208 2.432,-1.558 2.136,-1.831 1.839,-2.1 1.451,-2.234 0.97,-2.234 H 0 V -4.068 H -0.762 V 0.676 H 0.97 c 0.481,0 0.869,-0.134 1.166,-0.404"/>
      </g>
      <g transform="matrix(0.35277777,0,0,-0.35277777,20.585589,273.315)" id="g1844">
        <path inkscape:connector-curvature="0" id="path1846" style="fill:#0075c9;fill-opacity:1;fill-rule:nonzero;stroke:none" d="m 0,0 c -0.322,-0.332 -0.482,-0.748 -0.482,-1.252 0,-0.507 0.16,-0.926 0.482,-1.261 0.321,-0.332 0.728,-0.498 1.222,-0.498 0.488,0 0.894,0.166 1.217,0.498 0.325,0.335 0.486,0.754 0.486,1.261 0,0.501 -0.163,0.914 -0.488,1.249 C 2.111,0.329 1.706,0.495 1.222,0.495 0.728,0.495 0.321,0.332 0,0 M 2.979,0.485 C 3.466,0.013 3.708,-0.569 3.708,-1.258 3.708,-1.95 3.466,-2.529 2.979,-3.001 2.493,-3.474 1.904,-3.708 1.214,-3.708 c -0.694,0 -1.283,0.234 -1.765,0.707 -0.482,0.472 -0.721,1.051 -0.721,1.743 0,0.689 0.239,1.271 0.721,1.743 0.482,0.473 1.071,0.707 1.765,0.707 0.69,0 1.279,-0.234 1.765,-0.707"/>
      </g>
      <g transform="matrix(0.35277777,0,0,-0.35277777,39.542209,285.46533)" id="g1848">
        <path inkscape:connector-curvature="0" id="path1850" style="fill:#0075c9;fill-opacity:1;fill-rule:nonzero;stroke:none" d="M 0,0 V -5.09 H -2.203 V 0.213"/>
      </g>
    </g>
  </g>
</svg>